# xmcd
#
# Track frame offsets: 
#        182
#        12425
#        26530
#        39947
#        54615
#        69410
#        82142
#        91992
#        103882
#        115470
#
# Disc length: 1719 seconds
#
# Revision: 0
# Processed by: cddbd v1.5.2PL0 Copyright (c) Steve Scherf et al.
# Submitted via: ExactAudioCopy v0.99pb3
#
DISCID=8106b50a
DTITLE=Joe Tex  - Joe Tex Greatest Hits
DYEAR=1996
DGENRE=R&B
TTITLE0=I Gotcha
TTITLE1=Hold What You've Got
TTITLE2=The Love You Save
TTITLE3=Skinny Legs and All
TTITLE4=Men Are Gettin' Scarce
TTITLE5=S.Y.S.L.J.F.M. (The Letter Song)
TTITLE6=I Want To (Do Everything For You)
TTITLE7=A Sweet Woman Like You
TTITLE8=You Said A Bad Word
TTITLE9=I Believe I'm Gonna Make It
EXTD=
EXTT0=
EXTT1=
EXTT2=
EXTT3=
EXTT4=
EXTT5=
EXTT6=
EXTT7=
EXTT8=
EXTT9=
PLAYORDER=
